<?xml version="1.0" encoding="utf-8"?>
<!-- Generated by IcoMoon.io -->
<!DOCTYPE svg PUBLIC "-//W3C//DTD SVG 1.1//EN" "http://www.w3.org/Graphics/SVG/1.1/DTD/svg11.dtd">
<svg version="1.1" xmlns="http://www.w3.org/2000/svg" xmlns:xlink="http://www.w3.org/1999/xlink" width="512" height="512" viewBox="0 0 512 512">
<g>
</g>
	<path d="M162.212 297.615v132.198h152.77v-132.198h-152.77zM302.438 411.925h-127.621v-97.341h127.621v97.341z" fill="#000000" />
	<path d="M235.172 420.423h7.567v18.32h-7.567v-18.32z" fill="#000000" />
	<path d="M191.877 438.917h91.607v6.942h-91.607v-6.942z" fill="#000000" />
	<path d="M140.984 474.481l19.62-21.504h157.952l17.726 21.965z" fill="#000000" />
	<path d="M31.57 37.059v132.229h152.781v-132.229h-152.781zM171.776 151.368h-127.662v-97.341h127.672l-0.010 97.341z" fill="#000000" />
	<path d="M104.499 159.887h7.537v18.309h-7.537v-18.309z" fill="#000000" />
	<path d="M61.184 178.35h91.618v6.942h-91.618v-6.942z" fill="#000000" />
	<path d="M10.302 213.924l19.599-21.474h158.013l17.684 21.945z" fill="#000000" />
	<path d="M327.68 37.059v132.229h152.791v-132.229h-152.791zM467.856 151.368h-127.611v-97.341h127.621v97.341h-0.010z" fill="#000000" />
	<path d="M400.599 159.887h7.536v18.309h-7.536v-18.309z" fill="#000000" />
	<path d="M357.284 178.35h91.638v6.942h-91.638v-6.942z" fill="#000000" />
	<path d="M306.422 213.924l19.599-21.474h157.962l17.715 21.945z" fill="#000000" />
	<path d="M117.918 219.99l41.523 56.926-16.546 12.069-41.523-56.926 16.546-12.069z" fill="#000000" />
	<path d="M383.308 235.813l-45.639 53.669-15.618-13.28 45.639-53.669 15.618 13.28z" fill="#000000" />
	<path d="M209.654 100.373h84.624v20.48h-84.624v-20.48z" fill="#000000" />
</svg>
